Coordinates
version=1
nRows=12
nColumns=24
inDegrees=yes

Units are S.I. units (second, meters, Newtons, ...)
Angles are in degrees.

endheader
time	pelvis_tilt	pelvis_list	pelvis_rotation	pelvis_tx	pelvis_ty	pelvis_tz	hip_flexion_r	hip_adduction_r	hip_rotation_r	knee_angle_r	ankle_angle_r	subtalar_angle_r	mtp_angle_r	hip_flexion_l	hip_adduction_l	hip_rotation_l	knee_angle_l	ankle_angle_l	subtalar_angle_l	mtp_angle_l	lumbar_extension	lumbar_bending	lumbar_rotation
      5.55000000	     50.29778413	      1.59302770	     -3.88679304	      0.75707551	      0.96483195	     -0.27508356	     16.58984094	    -14.16109572	      9.01644311	    -62.40962826	      7.08957382	     15.88717765	    -32.15284119	     12.94517189	     -7.70942989	     -4.48023756	    -57.77385017	     -0.97072109	     14.00295420	    -42.66339340	      0.00000000	      0.00000000	      0.00000000
      5.56000000	     50.34679983	      1.60612204	     -3.92269568	      0.75706789	      0.96498472	     -0.27504508	     16.52537963	    -14.17084935	      9.03245355	    -62.37680739	      7.07996630	     15.88290528	    -32.14281136	     12.99009031	     -7.48997421	     -4.76655716	    -57.21385914	     -1.00630158	     14.25308455	    -41.75014752	      0.00000000	      0.00000000	      0.00000000
      5.57000000	     50.38571656	      1.61376336	     -3.95256953	      0.75709341	      0.96498516	     -0.27504538	     16.47604424	    -14.18076238	      9.04824810	    -62.34603496	      7.06547050	     15.87676514	    -32.13325183	     13.05035430	     -7.27304955	     -5.00744795	    -56.65819550	     -1.05123681	     14.53487909	    -40.72078593	      0.00000000	      0.00000000	      0.00000000
      5.58000000	     50.41093483	      1.61553469	     -3.97655813	      0.75709623	      0.96497294	     -0.27506012	     16.44542936	    -14.18620000	      9.06307770	    -62.31883877	      7.04361180	     15.87160564	    -32.12238101	     13.10856993	     -7.05775254	     -5.20362946	    -56.07596275	     -1.08997160	     14.83465538	    -39.65554257	      0.00000000	      0.00000000	      0.00000000
      5.59000000	     50.42231810	      1.61425096	     -3.99725492	      0.75707290	      0.96502071	     -0.27505680	     16.43118304	    -14.18424843	      9.07701914	    -62.29453214	      7.01237455	     15.87016070	    -32.10853988	     13.15359766	     -6.84369068	     -5.35913917	    -55.45874079	     -1.12097158	     15.13259284	    -38.63416176	      0.00000000	      0.00000000	      0.00000000
      5.60000000	     50.42437742	      1.61338619	     -4.01753351	      0.75704809	      0.96511427	     -0.27501749	     16.42595617	    -14.17543150	      9.09123621	    -62.27170830	      6.97145121	     15.87406693	    -32.09067901	     13.18291703	     -6.63229578	     -5.48086378	    -54.81773647	     -1.15455307	     15.40577769	    -37.72916719	      0.00000000	      0.00000000	      0.00000000
      5.61000000	     50.42541299	      1.61500687	     -4.03912500	      0.75703208	      0.96521780	     -0.27494970	     16.42009113	    -14.16338452	      9.10737557	    -62.24927840	      6.92320841	     15.88323518	    -32.06867779	     13.20086653	     -6.42622925	     -5.57725150	    -54.17577452	     -1.20550912	     15.63253098	    -37.00251208	      0.00000000	      0.00000000	      0.00000000
      5.62000000	     50.43487830	      1.61909026	     -4.06244989	      0.75701577	      0.96530711	     -0.27488244	     16.40454721	    -14.15316641	      9.12676088	    -62.22645407	      6.87284467	     15.89576300	    -32.04339212	     13.21382337	     -6.22796499	     -5.65607011	    -53.55799576	     -1.28349371	     15.79711895	    -36.50523302	      0.00000000	      0.00000000	      0.00000000
      5.63000000	     50.46034065	      1.62430897	     -4.08738594	      0.75699237	      0.96537447	     -0.27484146	     16.37295173	    -14.14902528	      9.14984172	    -62.20225144	      6.82744553	     15.90847431	    -32.01644470	     13.22489270	     -6.03876245	     -5.72174199	    -52.98315838	     -1.38412066	     15.89363776	    -36.27873812	      0.00000000	      0.00000000	      0.00000000
      5.64000000	     50.50489829	      1.62945159	     -4.11405731	      0.75696973	      0.96542160	     -0.27482337	     16.32249100	    -14.15224439	      9.17589104	    -62.17555330	      6.79413080	     15.91798175	    -31.98987231	     13.22993291	     -5.85846344	     -5.77335884	    -52.45637755	     -1.48343617	     15.92791223	    -36.35585141	      0.00000000	      0.00000000	      0.00000000
      5.65000000	     50.56615365	      1.63411662	     -4.14298541	      0.75696096	      0.96545481	     -0.27480276	     16.25423280	    -14.16000898	      9.20300063	    -62.14622815	      6.77805057	     15.92187476	    -31.96576725	     13.21617926	     -5.68618570	     -5.80410594	    -51.96403378	     -1.53787158	     15.91668591	    -36.75991464	      0.00000000	      0.00000000	      0.00000000
      5.66000000	     50.63766537	      1.63772497	     -4.17459407	      0.75695925	      0.96550978	     -0.27476129	     16.17331577	    -14.16619557	      9.22861315	    -62.11678500	      6.78110726	     15.91950867	    -31.94599364	     13.16441524	     -5.52160129	     -5.80230100	    -51.47268524	     -1.49086154	     15.88407879	    -37.50112478	      0.00000000	      0.00000000	      0.00000000
